<svg xmlns="http://www.w3.org/2000/svg" width="700" height="500" viewBox="0 0 700 500">
  <style>
    .box { stroke: #000; stroke-width: 2; fill: #fff; }
    .text { font-family: Arial, sans-serif; font-size: 13px; fill: #000; }
    .label { font-size: 11px; fill: #666; }
    .bold { font-weight: bold; }
  </style>

  <text x="350" y="30" class="text bold" text-anchor="middle" font-size="16">Variante C · Aufgabe 2</text>
  <line x1="30" y1="50" x2="670" y2="50" stroke="#000" stroke-width="1"/>

  <rect x="50" y="80" width="600" height="50" class="box"/>
  <text x="60" y="98" class="text label">Deklaration und Initialisierung:</text>
  <text x="60" y="115" class="text">maximum = -999999</text>

  <rect x="50" y="130" width="600" height="50" class="box"/>
  <text x="60" y="148" class="text label">Deklaration und Einlesen:</text>
  <text x="60" y="165" class="text">zahl als Ganzzahl</text>

  <rect x="50" y="180" width="600" height="40" class="box"/>
  <text x="60" y="205" class="text">Wiederhole solange zahl != -1</text>
  <line x1="50" y1="220" x2="50" y2="420" stroke="#000" stroke-width="2"/>

  <rect x="70" y="220" width="580" height="100" class="box"/>
  <polygon points="70,220 650,220 360,260" fill="#fff" stroke="#000" stroke-width="2"/>
  <text x="360" y="238" class="text" text-anchor="middle">zahl &gt; maximum</text>
  <line x1="360" y1="260" x2="360" y2="320" stroke="#000" stroke-width="2"/>
  <text x="80" y="275" class="text bold">J</text>
  <text x="370" y="275" class="text bold">N</text>

  <rect x="85" y="280" width="265" height="40" class="box"/>
  <text x="95" y="305" class="text">Zuweisung: maximum = zahl</text>

  <rect x="70" y="320" width="580" height="50" class="box"/>
  <text x="80" y="338" class="text label">Ausgabe:</text>
  <text x="80" y="355" class="text">maximum</text>

  <rect x="70" y="370" width="580" height="50" class="box"/>
  <text x="80" y="388" class="text label">Deklaration und Einlesen:</text>
  <text x="80" y="405" class="text">zahl als Ganzzahl</text>

  <line x1="50" y1="420" x2="650" y2="420" stroke="#000" stroke-width="2"/>

  <rect x="50" y="420" width="600" height="50" class="box"/>
  <text x="60" y="438" class="text label">Ausgabe:</text>
  <text x="60" y="455" class="text">Programm endet</text>
</svg>
