<svg xmlns="http://www.w3.org/2000/svg" width="700" height="450" viewBox="0 0 700 450">
  <style>
    .box { stroke: #000; stroke-width: 2; fill: #fff; }
    .text { font-family: Arial, sans-serif; font-size: 13px; fill: #000; }
    .label { font-size: 11px; fill: #666; }
    .bold { font-weight: bold; }
  </style>

  <text x="350" y="30" class="text bold" text-anchor="middle" font-size="16">Variante B · Aufgabe 2</text>
  <line x1="30" y1="50" x2="670" y2="50" stroke="#000" stroke-width="1"/>

  <rect x="50" y="80" width="600" height="50" class="box"/>
  <text x="60" y="98" class="text label">Deklaration und Initialisierung:</text>
  <text x="60" y="115" class="text">summe = 0</text>

  <rect x="50" y="130" width="600" height="50" class="box"/>
  <text x="60" y="148" class="text label">Deklaration und Einlesen:</text>
  <text x="60" y="165" class="text">zahl als Ganzzahl</text>

  <rect x="50" y="180" width="600" height="40" class="box"/>
  <text x="60" y="205" class="text">Wiederhole solange zahl != -1</text>
  <line x1="50" y1="220" x2="50" y2="370" stroke="#000" stroke-width="2"/>

  <rect x="70" y="220" width="580" height="50" class="box"/>
  <text x="80" y="238" class="text label">Zuweisung:</text>
  <text x="80" y="255" class="text">summe = summe + zahl</text>

  <rect x="70" y="270" width="580" height="50" class="box"/>
  <text x="80" y="288" class="text label">Ausgabe:</text>
  <text x="80" y="305" class="text">summe</text>

  <rect x="70" y="320" width="580" height="50" class="box"/>
  <text x="80" y="338" class="text label">Deklaration und Einlesen:</text>
  <text x="80" y="355" class="text">zahl als Ganzzahl</text>

  <line x1="50" y1="370" x2="650" y2="370" stroke="#000" stroke-width="2"/>

  <rect x="50" y="370" width="600" height="50" class="box"/>
  <text x="60" y="388" class="text label">Ausgabe:</text>
  <text x="60" y="405" class="text">Programm endet</text>
</svg>
